<svg xmlns="http://www.w3.org/2000/svg" width="294" height="35" viewBox="0 0 294 35"><rect class="svg__rect" x="0" y="0" width="154.95" height="35" fill="#31C4F3"/><rect class="svg__rect" x="152.95" y="0" width="141.05" height="35" fill="#389AD5"/><path class="svg__text" d="M16.25 14.66L13.61 14.66L13.61 13.47L20.38 13.47L20.38 14.66L17.72 14.66L17.72 22L16.25 22L16.25 14.66ZM25.62 22L24.14 22L24.14 13.47L25.62 13.47L25.62 17.02L29.43 17.02L29.43 13.47L30.91 13.47L30.91 22L29.43 22L29.43 18.21L25.62 18.21L25.62 22ZM41.23 22L35.65 22L35.65 13.47L41.19 13.47L41.19 14.66L37.13 14.66L37.13 17.02L40.64 17.02L40.64 18.19L37.13 18.19L37.13 20.82L41.23 20.82L41.23 22ZM45.15 18.00L45.15 18.00L45.15 17.52Q45.15 16.28 45.60 15.32Q46.04 14.37 46.85 13.86Q47.65 13.35 48.69 13.35Q49.74 13.35 50.54 13.85Q51.35 14.35 51.79 15.29Q52.23 16.23 52.23 17.48L52.23 17.48L52.23 17.96Q52.23 19.21 51.80 20.16Q51.37 21.10 50.56 21.61Q49.75 22.12 48.71 22.12L48.71 22.12Q47.67 22.12 46.86 21.61Q46.05 21.10 45.60 20.17Q45.16 19.23 45.15 18.00ZM46.64 17.46L46.64 17.96Q46.64 19.36 47.18 20.13Q47.73 20.90 48.71 20.90L48.71 20.90Q49.69 20.90 50.22 20.15Q50.75 19.40 50.75 17.96L50.75 17.96L50.75 17.51Q50.75 16.09 50.21 15.34Q49.68 14.58 48.69 14.58L48.69 14.58Q47.73 14.58 47.19 15.33Q46.65 16.09 46.64 17.46L46.64 17.46ZM58.18 22L56.70 22L56.70 13.47L59.70 13.47Q61.17 13.47 61.98 14.13Q62.78 14.79 62.78 16.05L62.78 16.05Q62.78 16.90 62.37 17.48Q61.95 18.06 61.22 18.37L61.22 18.37L63.13 21.92L63.13 22L61.54 22L59.83 18.71L58.18 18.71L58.18 22ZM58.18 14.66L58.18 17.52L59.70 17.52Q60.45 17.52 60.88 17.15Q61.30 16.77 61.30 16.11L61.30 16.11Q61.30 15.43 60.91 15.05Q60.52 14.68 59.74 14.66L59.74 14.66L58.18 14.66ZM69.21 18.86L66.35 13.47L67.99 13.47L69.96 17.51L71.92 13.47L73.56 13.47L70.70 18.86L70.70 22L69.21 22L69.21 18.86ZM79.16 14.66L76.52 14.66L76.52 13.47L83.29 13.47L83.29 14.66L80.63 14.66L80.63 22L79.16 22L79.16 14.66ZM88.61 22L87.13 22L87.13 13.47L88.61 13.47L88.61 22ZM93.15 18.19L93.15 18.19L93.15 17.39Q93.15 16.19 93.58 15.27Q94.00 14.35 94.80 13.85Q95.60 13.35 96.65 13.35L96.65 13.35Q98.06 13.35 98.93 14.12Q99.79 14.89 99.93 16.29L99.93 16.29L98.45 16.29Q98.35 15.37 97.92 14.96Q97.48 14.55 96.65 14.55L96.65 14.55Q95.69 14.55 95.17 15.26Q94.65 15.96 94.64 17.33L94.64 17.33L94.64 18.09Q94.64 19.47 95.13 20.20Q95.63 20.92 96.58 20.92L96.58 20.92Q97.46 20.92 97.89 20.53Q98.33 20.14 98.45 19.22L98.45 19.22L99.93 19.22Q99.80 20.59 98.92 21.35Q98.04 22.12 96.58 22.12L96.58 22.12Q95.56 22.12 94.79 21.63Q94.01 21.15 93.59 20.26Q93.17 19.37 93.15 18.19ZM105.02 22L103.48 22L106.70 13.47L108.03 13.47L111.26 22L109.71 22L109.02 20.01L105.71 20.01L105.02 22ZM107.36 15.28L106.13 18.82L108.60 18.82L107.36 15.28ZM120.57 22L115.22 22L115.22 13.47L116.70 13.47L116.70 20.82L120.57 20.82L120.57 22ZM130.05 22L124.70 22L124.70 13.47L126.18 13.47L126.18 20.82L130.05 20.82L130.05 22ZM136.22 18.86L133.35 13.47L135.00 13.47L136.96 17.51L138.92 13.47L140.56 13.47L137.70 18.86L137.70 22L136.22 22L136.22 18.86Z" fill="#FFFFFF"/><path class="svg__text" d="M169.52 22L167.14 22L167.14 13.60L170.98 13.60Q172.12 13.60 172.96 13.98Q173.80 14.35 174.26 15.06Q174.71 15.76 174.71 16.71L174.71 16.71Q174.71 17.66 174.26 18.35Q173.80 19.05 172.96 19.42Q172.12 19.80 170.98 19.80L170.98 19.80L169.52 19.80L169.52 22ZM169.52 15.47L169.52 17.93L170.84 17.93Q171.57 17.93 171.94 17.61Q172.31 17.29 172.31 16.71L172.31 16.71Q172.31 16.12 171.94 15.80Q171.57 15.47 170.84 15.47L170.84 15.47L169.52 15.47ZM181.84 22L179.47 22L179.47 13.60L183.31 13.60Q184.45 13.60 185.29 13.98Q186.13 14.35 186.59 15.06Q187.04 15.76 187.04 16.71L187.04 16.71Q187.04 17.62 186.61 18.30Q186.19 18.98 185.40 19.36L185.40 19.36L187.21 22L184.66 22L183.14 19.77L181.84 19.77L181.84 22ZM181.84 15.47L181.84 17.93L183.16 17.93Q183.90 17.93 184.27 17.61Q184.64 17.29 184.64 16.71L184.64 16.71Q184.64 16.12 184.27 15.79Q183.90 15.47 183.16 15.47L183.16 15.47L181.84 15.47ZM191.40 17.80L191.40 17.80Q191.40 16.55 192.01 15.55Q192.61 14.56 193.67 14.00Q194.74 13.43 196.07 13.43L196.07 13.43Q197.40 13.43 198.46 14.00Q199.52 14.56 200.13 15.55Q200.74 16.55 200.74 17.80L200.74 17.80Q200.74 19.05 200.13 20.04Q199.52 21.04 198.46 21.60Q197.40 22.17 196.07 22.17L196.07 22.17Q194.74 22.17 193.67 21.60Q192.61 21.04 192.01 20.04Q191.40 19.05 191.40 17.80ZM193.80 17.80L193.80 17.80Q193.80 18.51 194.10 19.05Q194.40 19.60 194.92 19.90Q195.43 20.20 196.07 20.20L196.07 20.20Q196.70 20.20 197.22 19.90Q197.74 19.60 198.03 19.05Q198.33 18.51 198.33 17.80L198.33 17.80Q198.33 17.09 198.03 16.54Q197.74 16 197.22 15.70Q196.70 15.40 196.07 15.40L196.07 15.40Q195.43 15.40 194.91 15.70Q194.40 16 194.10 16.54Q193.80 17.09 193.80 17.80ZM209.44 22L205.46 22L205.46 13.60L209.44 13.60Q210.82 13.60 211.89 14.12Q212.95 14.63 213.54 15.58Q214.13 16.53 214.13 17.80L214.13 17.80Q214.13 19.07 213.54 20.02Q212.95 20.97 211.89 21.48Q210.82 22 209.44 22L209.44 22ZM207.84 15.50L207.84 20.10L209.34 20.10Q210.42 20.10 211.07 19.49Q211.73 18.88 211.73 17.80L211.73 17.80Q211.73 16.72 211.07 16.11Q210.42 15.50 209.34 15.50L209.34 15.50L207.84 15.50ZM218.79 18.26L218.79 18.26L218.79 13.60L221.17 13.60L221.17 18.19Q221.17 20.20 222.76 20.20L222.76 20.20Q224.34 20.20 224.34 18.19L224.34 18.19L224.34 13.60L226.69 13.60L226.69 18.26Q226.69 20.13 225.65 21.15Q224.61 22.17 222.74 22.17L222.74 22.17Q220.86 22.17 219.83 21.15Q218.79 20.13 218.79 18.26ZM231.34 17.80L231.34 17.80Q231.34 16.54 231.94 15.54Q232.54 14.55 233.59 13.99Q234.64 13.43 235.96 13.43L235.96 13.43Q237.12 13.43 238.04 13.84Q238.96 14.25 239.58 15.02L239.58 15.02L238.07 16.39Q237.25 15.40 236.09 15.40L236.09 15.40Q235.40 15.40 234.87 15.70Q234.33 16 234.04 16.54Q233.74 17.09 233.74 17.80L233.74 17.80Q233.74 18.51 234.04 19.05Q234.33 19.60 234.87 19.90Q235.40 20.20 236.09 20.20L236.09 20.20Q237.25 20.20 238.07 19.22L238.07 19.22L239.58 20.58Q238.97 21.35 238.04 21.76Q237.12 22.17 235.96 22.17L235.96 22.17Q234.64 22.17 233.59 21.61Q232.54 21.05 231.94 20.05Q231.34 19.06 231.34 17.80ZM245.91 15.48L243.32 15.48L243.32 13.60L250.84 13.60L250.84 15.48L248.28 15.48L248.28 22L245.91 22L245.91 15.48ZM257.59 22L255.22 22L255.22 13.60L257.59 13.60L257.59 22ZM265.35 22L261.76 13.60L264.33 13.60L266.61 19.07L268.94 13.60L271.29 13.60L267.69 22L265.35 22ZM282.19 22L275.44 22L275.44 13.60L282.03 13.60L282.03 15.44L277.80 15.44L277.80 16.85L281.53 16.85L281.53 18.63L277.80 18.63L277.80 20.17L282.19 20.17L282.19 22Z" fill="#FFFFFF" x="165.95"/></svg>